<svg width="65.000000" height="67.468262" viewBox="0 0 65 67.4683" fill="none" xmlns="http://www.w3.org/2000/svg" xmlns:xlink="http://www.w3.org/1999/xlink">
	<desc>
			Created with Pixso.
	</desc>
	<defs>
		<clipPath id="clip24_2278">
			<rect id="ri:account-pin-circle-fill" width="30.000000" height="30.000000" transform="translate(18.000000 19.000000)" fill="white" fill-opacity="0"/>
		</clipPath>
	</defs>
	<circle id="Ellipse 26" cx="32.500000" cy="34.031738" r="32.500000" fill="#0156FF" fill-opacity="1.000000"/>
	<rect id="ri:account-pin-circle-fill" width="30.000000" height="30.000000" transform="translate(18.000000 19.000000)" fill="#FFFFFF" fill-opacity="0"/>
	<g clip-path="url(#clip24_2278)">
		<path id="Vector" d="M35.8203 46.1799L33 49L30.1797 46.1799C24.6377 44.8999 20.5 39.9299 20.5 34C20.5 27.1001 26.0996 21.5 33 21.5C39.9004 21.5 45.5 27.1001 45.5 34C45.5 39.9299 41.3623 44.8999 35.8203 46.1799ZM25.5283 38.27C27.3633 41.0076 30.1191 42.75 33.2002 42.75C36.2803 42.75 39.0361 41.0088 40.8701 38.27C38.79 36.3257 36.0479 35.2461 33.2002 35.25C30.3525 35.2456 27.6094 36.3254 25.5283 38.27ZM33 32.75C33.9941 32.75 34.9482 32.355 35.6514 31.6516C36.3545 30.9485 36.75 29.9946 36.75 29C36.75 28.0054 36.3545 27.0515 35.6514 26.3484C34.9482 25.645 33.9941 25.25 33 25.25C32.0059 25.25 31.0518 25.645 30.3486 26.3484C29.6455 27.0515 29.25 28.0054 29.25 29C29.25 29.9946 29.6455 30.9485 30.3486 31.6516C31.0518 32.355 32.0059 32.75 33 32.75Z" fill="#FFFFFF" fill-opacity="1.000000" fill-rule="nonzero"/>
	</g>
</svg>
