<svg width="18.716797" height="16.666748" viewBox="0 0 18.7168 16.6667" fill="none" xmlns="http://www.w3.org/2000/svg" xmlns:xlink="http://www.w3.org/1999/xlink">
	<desc>
			Created with Pixso.
	</desc>
	<defs/>
	<path id="Vector" d="M11.457 16.6667C12.0098 16.6667 12.5391 16.4473 12.9297 16.0564C13.3203 15.6658 13.541 15.136 13.541 14.5833C13.541 14.0308 13.3203 13.501 12.9297 13.1101C12.5391 12.7195 12.0098 12.5 11.457 12.5C10.9043 12.5 10.375 12.7195 9.98438 13.1101C9.59375 13.501 9.375 14.0308 9.375 14.5833C9.375 15.136 9.59375 15.6658 9.98438 16.0564C10.375 16.4473 10.9043 16.6667 11.457 16.6667ZM4.16602 16.6667C4.71875 16.6667 5.24805 16.4473 5.63867 16.0564C6.0293 15.6658 6.25 15.136 6.25 14.5833C6.25 14.0308 6.0293 13.501 5.63867 13.1101C5.24805 12.7195 4.71875 12.5 4.16602 12.5C3.61328 12.5 3.08398 12.7195 2.69336 13.1101C2.30273 13.501 2.08203 14.0308 2.08203 14.5833C2.08203 15.136 2.30273 15.6658 2.69336 16.0564C3.08398 16.4473 3.61328 16.6667 4.16602 16.6667ZM17.7461 2.00317C18.0078 1.99463 18.2539 1.8855 18.4355 1.69873C18.6152 1.51172 18.7168 1.26172 18.7168 1.00146C18.7168 0.741455 18.6152 0.491455 18.4355 0.304443C18.2539 0.117676 18.0078 0.00830078 17.7461 0L16.5488 0C15.6094 0 14.7969 0.6521 14.5918 1.56885L13.2871 7.4458C13.082 8.36255 12.2695 9.01465 11.3301 9.01465L3.50586 9.01465L2.00391 3.00415L11.7383 3.00415C11.9961 2.99243 12.2383 2.88184 12.416 2.69531C12.5938 2.50903 12.6934 2.26099 12.6934 2.00317C12.6934 1.74536 12.5938 1.49731 12.416 1.31079C12.2383 1.12451 11.9961 1.01392 11.7383 1.0022L2.00391 1.0022C1.69922 1.00195 1.39844 1.07129 1.125 1.20483C0.851562 1.33838 0.611328 1.53247 0.423828 1.77246C0.236328 2.01245 0.105469 2.29199 0.0429688 2.59009C-0.0195312 2.88794 -0.0136719 3.19629 0.0585938 3.4917L1.5625 9.5C1.66992 9.93359 1.91992 10.3184 2.27148 10.5935C2.625 10.8684 3.05859 11.0178 3.50586 11.0178L11.3301 11.0178C12.2422 11.0178 13.127 10.707 13.8379 10.1365C14.5488 9.56616 15.0449 8.77026 15.2422 7.88013L16.5488 2.00317L17.7461 2.00317Z" fill="#0156FF" fill-opacity="1.000000" fill-rule="nonzero"/>
</svg>
