<svg width="10.000000" height="10.000000" viewBox="0 0 10 10" fill="none" xmlns="http://www.w3.org/2000/svg" xmlns:xlink="http://www.w3.org/1999/xlink">
	<desc>
			Created with Pixso.
	</desc>
	<defs/>
	<circle id="Ellipse 20" cx="5.000000" cy="5.000000" r="5.000000" fill="#C94D3F" fill-opacity="1.000000"/>
	<path id="Vector" d="M5.67676 5.85626L6.02637 5.50626C6.07422 5.45969 6.13379 5.42783 6.19824 5.41452C6.26367 5.40121 6.33105 5.40701 6.39258 5.43124L6.81934 5.60156C6.88086 5.62686 6.93457 5.67004 6.97266 5.72565C7.00977 5.78125 7.03125 5.84683 7.03125 5.91406L7.03125 6.69531C7.03125 6.74106 7.02148 6.78625 7.00293 6.82819C6.98438 6.87012 6.95801 6.90793 6.9248 6.9393C6.8916 6.9707 6.85254 6.99503 6.80957 7.01083C6.7666 7.02664 6.7207 7.03357 6.6748 7.03125C3.68652 6.84531 3.08301 4.31406 2.96875 3.34531C2.96387 3.29776 2.96875 3.2496 2.9834 3.20401C2.99805 3.15845 3.02148 3.11652 3.05371 3.08093C3.08594 3.04535 3.125 3.01697 3.16895 2.99765C3.21289 2.9783 3.25977 2.96848 3.30762 2.96875L4.0625 2.96875C4.12988 2.96896 4.19531 2.98929 4.25098 3.02716C4.30664 3.06503 4.35059 3.11871 4.375 3.18124L4.5459 3.60782C4.57031 3.66925 4.57715 3.73666 4.56348 3.8017C4.55078 3.86673 4.51855 3.92645 4.47168 3.97345L4.12207 4.32346C4.12207 4.32346 4.32324 5.6875 5.67676 5.85626Z" fill="#FFFFFF" fill-opacity="1.000000" fill-rule="nonzero"/>
</svg>
