<svg width="65.000000" height="67.468262" viewBox="0 0 65 67.4683" fill="none" xmlns="http://www.w3.org/2000/svg" xmlns:xlink="http://www.w3.org/1999/xlink">
	<desc>
			Created with Pixso.
	</desc>
	<defs>
		<clipPath id="clip24_2300">
			<rect id="entypo:price-tag" width="26.000000" height="26.000000" transform="translate(20.000000 22.000000)" fill="white" fill-opacity="0"/>
		</clipPath>
	</defs>
	<circle id="Ellipse 26" cx="32.500000" cy="34.031738" r="32.500000" fill="#0156FF" fill-opacity="1.000000"/>
	<rect id="entypo:price-tag" width="26.000000" height="26.000000" transform="translate(20.000000 22.000000)" fill="#FFFFFF" fill-opacity="0"/>
	<g clip-path="url(#clip24_2300)">
		<path id="Vector" d="M45.2051 22.5264C45.1289 22.3386 44.9844 22.187 44.7998 22.1033C44.6162 22.0195 44.4062 22.0103 44.2148 22.0771C44.0244 22.1438 43.8662 22.2817 43.7744 22.4622C43.6826 22.6423 43.6631 22.8513 43.7217 23.0452C44.9287 26.5161 42.5322 29.1084 40.7041 30.4966L39.9658 29.4385C39.7178 29.0835 39.1621 28.7886 38.7305 28.7832L34.5859 28.8015C34.0801 28.8169 33.5869 28.9685 33.1602 29.241L20.9482 37.804C20.6641 38.0039 20.4707 38.3081 20.4102 38.6504C20.3506 38.9924 20.4277 39.3445 20.627 39.6292L26.1768 47.5696C26.5928 48.1611 27.2568 48.0896 27.8496 47.6763L40.0615 39.1118C40.4131 38.8635 40.8184 38.3279 40.9619 37.9185L42.2588 33.8298C42.4023 33.4216 42.3145 32.7991 42.0664 32.4441L41.6172 31.7993C44.0713 29.9182 46.6191 26.594 45.2051 22.5264ZM39.5225 34.6919C39.2979 34.8494 39.0439 34.9609 38.7754 35.0203C38.5078 35.0796 38.2305 35.0854 37.96 35.0378C37.6895 34.99 37.4307 34.8894 37.1992 34.7417C36.9678 34.594 36.7676 34.4021 36.6104 34.177C36.292 33.7214 36.167 33.1582 36.2637 32.6108C36.3594 32.0635 36.6689 31.5767 37.124 31.2571C37.4805 31.0073 37.9062 30.8752 38.3418 30.8792C38.7773 30.8831 39.2002 31.0229 39.5527 31.2793C39.1982 31.4924 38.9561 31.6172 38.9102 31.6367C38.749 31.7136 38.6191 31.843 38.541 32.0034C38.4629 32.1641 38.4414 32.3464 38.4805 32.5205C38.5195 32.6948 38.6172 32.8506 38.7559 32.9622C38.8955 33.074 39.0684 33.1353 39.2471 33.1357C39.3584 33.1357 39.4727 33.1096 39.5811 33.0591C39.833 32.9395 40.1035 32.7976 40.3857 32.6299C40.4502 33.02 40.4043 33.4207 40.251 33.7854C40.0986 34.1501 39.8457 34.4644 39.5225 34.6919Z" fill="#FFFFFF" fill-opacity="1.000000" fill-rule="nonzero"/>
	</g>
</svg>
