<svg width="20.000000" height="20.000000" viewBox="0 0 20 20" fill="none" xmlns="http://www.w3.org/2000/svg" xmlns:xlink="http://www.w3.org/1999/xlink">
	<desc>
			Created with Pixso.
	</desc>
	<defs>
		<clipPath id="clip57_505">
			<rect id="ant-design:instagram-filled" width="20.000000" height="20.000000" fill="white" fill-opacity="0"/>
		</clipPath>
	</defs>
	<rect id="ant-design:instagram-filled" width="20.000000" height="20.000000" fill="#FFFFFF" fill-opacity="0"/>
	<g clip-path="url(#clip57_505)">
		<path id="Vector" d="M10 7.39648C8.56641 7.39648 7.39648 8.56641 7.39648 10C7.39648 11.4336 8.56641 12.6035 10 12.6035C11.4336 12.6035 12.6035 11.4336 12.6035 10C12.6035 8.56641 11.4336 7.39648 10 7.39648ZM17.8086 10C17.8086 8.92188 17.8184 7.85352 17.7578 6.77734C17.6973 5.5274 17.4121 4.41803 16.498 3.50397C15.582 2.58795 14.4746 2.30475 13.2246 2.2442C12.1465 2.18365 11.0781 2.19342 10.002 2.19342C8.92383 2.19342 7.85547 2.18365 6.7793 2.2442C5.5293 2.30475 4.41992 2.5899 3.50586 3.50397C2.58984 4.41998 2.30664 5.5274 2.24609 6.77734C2.18555 7.85547 2.19531 8.92383 2.19531 10C2.19531 11.0762 2.18555 12.1465 2.24609 13.2227C2.30664 14.4727 2.5918 15.582 3.50586 16.4961C4.42188 17.4121 5.5293 17.6953 6.7793 17.7559C7.85742 17.8164 8.92578 17.8066 10.002 17.8066C11.0801 17.8066 12.1484 17.8164 13.2246 17.7559C14.4746 17.6953 15.584 17.4102 16.498 16.4961C17.4141 15.5801 17.6973 14.4727 17.7578 13.2227C17.8203 12.1465 17.8086 11.0781 17.8086 10ZM10 14.0059C7.7832 14.0059 5.99414 12.2168 5.99414 10C5.99414 7.7832 7.7832 5.9942 10 5.9942C12.2168 5.9942 14.0059 7.7832 14.0059 10C14.0059 12.2168 12.2168 14.0059 10 14.0059ZM14.1699 6.76562C13.6523 6.76562 13.2344 6.34772 13.2344 5.83014C13.2344 5.31256 13.6523 4.89459 14.1699 4.89459C14.6875 4.89459 15.1055 5.31256 15.1055 5.83014C15.1055 5.953 15.0811 6.07471 15.0342 6.18829C14.9873 6.30188 14.918 6.40509 14.8311 6.492C14.7441 6.57892 14.6416 6.64777 14.5273 6.69476C14.4141 6.7417 14.292 6.76581 14.1699 6.76562Z" fill="#FFFFFF" fill-opacity="1.000000" fill-rule="nonzero"/>
	</g>
</svg>
