<svg width="20.000000" height="20.000000" viewBox="0 0 20 20" fill="none" xmlns="http://www.w3.org/2000/svg" xmlns:xlink="http://www.w3.org/1999/xlink">
	<desc>
			Created with Pixso.
	</desc>
	<defs>
		<clipPath id="clip57_503">
			<rect id="ant-design:facebook-filled" width="20.000000" height="20.000000" fill="white" fill-opacity="0"/>
		</clipPath>
	</defs>
	<rect id="ant-design:facebook-filled" width="20.000000" height="20.000000" fill="#FFFFFF" fill-opacity="0"/>
	<g clip-path="url(#clip57_503)">
		<path id="Vector" d="M17.1055 2.27661L2.89453 2.27661C2.55273 2.27661 2.27637 2.55273 2.27637 2.89447L2.27637 17.1053C2.27637 17.4471 2.55273 17.7232 2.89453 17.7232L17.1055 17.7232C17.4473 17.7232 17.7227 17.4471 17.7227 17.1053L17.7227 2.89447C17.7227 2.55273 17.4473 2.27661 17.1055 2.27661ZM15.3213 6.7851L14.0869 6.7851C13.1201 6.7851 12.9326 7.24463 12.9326 7.92041L12.9326 9.40906L15.2422 9.40906L14.9404 11.7396L12.9326 11.7396L12.9326 17.7232L10.5244 17.7232L10.5244 11.7415L8.51074 11.7415L8.51074 9.40906L10.5244 9.40906L10.5244 7.69061C10.5244 5.69611 11.7432 4.60907 13.5234 4.60907C14.377 4.60907 15.1084 4.67279 15.3232 4.70172L15.3232 6.7851L15.3213 6.7851Z" fill="#FFFFFF" fill-opacity="1.000000" fill-rule="nonzero"/>
	</g>
</svg>
