<svg width="65.000000" height="67.468262" viewBox="0 0 65 67.4683" fill="none" xmlns="http://www.w3.org/2000/svg" xmlns:xlink="http://www.w3.org/1999/xlink">
	<desc>
			Created with Pixso.
	</desc>
	<defs>
		<clipPath id="clip24_2309">
			<rect id="bx:bx-support" width="29.620253" height="29.620253" transform="translate(18.101562 18.924072)" fill="white" fill-opacity="0"/>
		</clipPath>
	</defs>
	<circle id="Ellipse 26" cx="32.500000" cy="33.500000" r="32.500000" fill="#0156FF" fill-opacity="1.000000"/>
	<rect id="bx:bx-support" width="29.620253" height="29.620253" transform="translate(18.101562 18.924072)" fill="#FFFFFF" fill-opacity="0"/>
	<g clip-path="url(#clip24_2309)">
		<path id="Vector" d="M32.9111 21.3923C26.1055 21.3923 20.5693 26.929 20.5693 33.7341L20.5693 38.8474C20.5693 40.1111 21.6768 41.1392 23.0381 41.1392L24.2715 41.1392C24.5996 41.1392 24.9131 41.009 25.1445 40.7776C25.376 40.5461 25.5059 40.2324 25.5059 39.905L25.5059 33.5576C25.5059 33.2302 25.376 32.9163 25.1445 32.6848C24.9131 32.4534 24.5996 32.3235 24.2715 32.3235L23.1514 32.3235C23.8379 27.5471 27.9473 23.8606 32.9111 23.8606C37.875 23.8606 41.9844 27.5471 42.6709 32.3235L41.5508 32.3235C41.2227 32.3235 40.9092 32.4534 40.6777 32.6848C40.4463 32.9163 40.3164 33.2302 40.3164 33.5576L40.3164 41.1392C40.3164 42.5005 39.209 43.6074 37.8477 43.6074L35.3799 43.6074L35.3799 42.3733L30.4424 42.3733L30.4424 46.0759L37.8477 46.0759C40.5703 46.0759 42.7842 43.8618 42.7842 41.1392C44.1455 41.1392 45.2529 40.1111 45.2529 38.8474L45.2529 33.7341C45.2529 26.929 39.7168 21.3923 32.9111 21.3923Z" fill="#FFFFFF" fill-opacity="1.000000" fill-rule="nonzero"/>
	</g>
</svg>
