<svg width="77.000000" height="27.000000" viewBox="0 0 77 27" fill="none" xmlns="http://www.w3.org/2000/svg" xmlns:xlink="http://www.w3.org/1999/xlink">
	<desc>
			Created with Pixso.
	</desc>
	<defs>
		<clipPath id="clip50_1170">
			<rect id="primary 1" width="77.000000" height="27.000000" fill="white" fill-opacity="0"/>
		</clipPath>
	</defs>
	<rect id="primary 1" width="77.000000" height="27.000000" fill="#FFFFFF" fill-opacity="0"/>
	<g clip-path="url(#clip50_1170)">
		<path id="Shape" d="M27.2842 10.1111L21.1211 15.5228L5.85645 15.5228C4.43262 15.5209 3.05762 16.0276 1.99023 16.9472L9.68945 10.1856L9.80762 10.0834L19.4531 1.60541C21.0078 0.23982 23.1914 -0.212135 25.1807 0.419785C27.1699 1.0517 28.6631 2.6715 29.0967 4.669C29.5303 6.6665 28.8398 8.73825 27.2842 10.1038L27.2842 10.1111Z" fill="#F15B41" fill-opacity="1.000000" fill-rule="nonzero"/>
		<path id="Oval" d="M11.7139 5.86312C11.7139 9.02037 9.09082 11.5798 5.85645 11.5798C2.62207 11.5798 0 9.02037 0 5.86312C0 2.70588 2.62207 0.146423 5.85645 0.146423C9.09082 0.146423 11.7139 2.70588 11.7139 5.86312Z" fill="#F99D1D" fill-opacity="1.000000" fill-rule="evenodd"/>
		<path id="Shape" d="M5.85742 15.5228C4.43359 15.521 3.05762 16.0276 1.99023 16.9473L1.94141 16.9911C-0.463867 19.1021 -0.660156 22.7161 1.50293 25.0633C3.66602 27.4105 7.36816 27.602 9.77246 25.4909L21.123 15.5243L5.85742 15.5228Z" fill="#272560" fill-opacity="1.000000" fill-rule="nonzero"/>
		<path id="Shape" d="M21.1133 15.5272L9.76172 25.4939C8.68652 26.4373 7.29102 26.9574 5.8457 26.9534L23.3584 26.9533C26.7363 26.9006 29.1211 24.42 29.1211 21.2373C29.1211 18.0547 26.5557 15.5712 23.3584 15.5214L21.1133 15.5272Z" fill="#00B6BD" fill-opacity="1.000000" fill-rule="nonzero"/>
		<path id="Shape" d="M37.6133 22.1743C37.125 22.1918 36.6533 22.0041 36.3184 21.6591C35.9902 21.3108 35.8154 20.8514 35.8311 20.3791C35.8262 19.9035 35.9473 19.4347 36.1816 19.0175C36.3887 18.6444 36.6396 18.2969 36.9316 17.9827L44.1787 10.0111L37.8623 10.0111C37.25 10.0111 36.8115 9.80681 36.5723 9.40108C36.3379 8.9935 36.2217 8.53222 36.2344 8.06567C36.2178 7.61604 36.3506 7.17316 36.6143 6.80324C36.875 6.45316 37.2998 6.25454 37.7432 6.27492L48.9033 6.27492C49.375 6.25377 49.835 6.42147 50.1768 6.73903C50.4932 7.04697 50.6533 7.48481 50.6533 8.0394C50.667 8.47127 50.5742 8.90002 50.3838 9.29016C50.2002 9.63007 49.9707 9.94428 49.7012 10.2242L42.1553 18.4366L49.3047 18.4366C49.7354 18.4262 50.1445 18.6159 50.4072 18.9474C50.6875 19.318 50.8291 19.7707 50.8076 20.2303C50.8281 20.7091 50.7109 21.1838 50.4678 21.6007C50.2227 21.9816 49.7891 22.1757 49.1807 22.1757L37.6133 22.1743Z" fill="#272560" fill-opacity="1.000000" fill-rule="nonzero"/>
		<path id="Shape" d="M55.1426 22.3844C53.1562 22.3844 52.7422 21.392 52.7422 20.5601L52.7422 8.41737C52.7422 7.7825 52.9385 7.26877 53.3291 6.89077C53.7188 6.51277 54.3398 6.32012 55.1768 6.32012C55.8818 6.32012 56.4395 6.47628 56.8369 6.78569C57.2344 7.0951 57.4551 7.59423 57.4551 8.23639L57.4551 20.4959C57.4551 21.1628 57.2393 21.6532 56.8135 21.9553C56.3877 22.2574 55.8398 22.3844 55.1426 22.3844ZM55.1426 5.01683C54.3682 5.01683 53.7334 4.79645 53.2539 4.36153C52.7734 3.92661 52.5234 3.32677 52.5234 2.58974C52.5049 1.93634 52.7686 1.30533 53.251 0.850069C53.7266 0.396177 54.3643 0.164124 55.1426 0.164124C55.7842 0.165485 56.4082 0.370434 56.9199 0.747908C57.4775 1.1478 57.7607 1.76953 57.7607 2.59558C57.7607 3.33261 57.5156 3.92953 57.0303 4.36883C56.5459 4.80812 55.9121 5.02121 55.1426 5.02121L55.1426 5.01683Z" fill="#272560" fill-opacity="1.000000" fill-rule="nonzero"/>
		<path id="Shape" d="M62.6338 27.0374C60.7764 27.0374 60.3838 26.0289 60.3838 25.1824L60.3838 8.00585C60.3672 7.46785 60.5801 6.94724 60.9717 6.56681C61.3604 6.1888 61.9824 5.99615 62.8193 5.99615C63.3398 5.991 63.8545 6.1071 64.3193 6.33475C64.8135 6.5814 65.0693 7.06449 65.0693 7.75774C65.1699 7.64584 65.2773 7.53103 65.3916 7.4133C65.707 7.10194 66.0596 6.82852 66.4424 6.59892C67.3711 6.03471 68.4473 5.74285 69.542 5.75826C70.5918 5.73842 71.6309 5.95732 72.5781 6.39751C73.4453 6.81377 74.1992 7.42154 74.7812 8.17223C75.3887 8.97515 75.8311 9.88376 76.0869 10.8489C76.3789 11.9395 76.5215 13.0627 76.5127 14.1896C76.5234 15.3376 76.3584 16.4807 76.0234 17.5815C75.7275 18.5593 75.2422 19.4728 74.5928 20.2727C73.9668 21.0265 73.1738 21.6327 72.2734 22.046C71.2939 22.4832 70.2256 22.7011 69.1475 22.6838C68.4258 22.704 67.7061 22.6053 67.0176 22.3919C66.5234 22.2289 66.0547 22.0026 65.6211 21.7191C65.3867 21.5641 65.1709 21.3845 64.9766 21.1834L64.9766 25.0948C64.9766 25.775 64.7861 26.277 64.4092 26.5864C64.0332 26.8958 63.4541 27.0374 62.6338 27.0374ZM68.3428 9.64922C67.8311 9.63719 67.3252 9.75329 66.874 9.98635C66.4492 10.2209 66.085 10.5469 65.8086 10.9394C65.499 11.3835 65.2734 11.8777 65.1416 12.3989C64.9863 13.0045 64.9102 13.6268 64.915 14.2509C64.915 15.6725 65.2148 16.8123 65.8154 17.6398C66.415 18.4674 67.2295 18.8541 68.3486 18.8541C69.4678 18.8541 70.2822 18.4396 70.8477 17.5858C71.4131 16.732 71.7139 15.5951 71.7139 14.2509C71.7158 13.6284 71.6377 13.0081 71.4805 12.4047C71.3486 11.8858 71.127 11.3923 70.8262 10.9452C70.5586 10.5522 70.1982 10.2265 69.7764 9.99511C69.3369 9.76183 68.8428 9.6427 68.3428 9.64922Z" fill="#272560" fill-opacity="1.000000" fill-rule="nonzero"/>
	</g>
</svg>
